<svg width="61" height="61" viewBox="0 0 61 61" fill="none" xmlns="http://www.w3.org/2000/svg">
<path d="M20.7824 9.50625C20.2143 9.15673 19.5632 8.96507 18.8963 8.95103C18.2294 8.93698 17.5709 9.10107 16.9886 9.42637C16.4062 9.75167 15.9212 10.2264 15.5835 10.8016C15.2458 11.3768 15.0676 12.0317 15.0674 12.6988V49.2788C15.0676 49.9458 15.2458 50.6007 15.5835 51.1759C15.9212 51.7511 16.4062 52.2258 16.9886 52.5511C17.5709 52.8764 18.2294 53.0405 18.8963 53.0265C19.5632 53.0124 20.2143 52.8208 20.7824 52.4713L50.5024 34.1813C51.0478 33.8456 51.4982 33.3759 51.8106 32.8168C52.123 32.2577 52.2871 31.6279 52.2871 30.9875C52.2871 30.3471 52.123 29.7173 51.8106 29.1582C51.4982 28.5991 51.0478 28.1294 50.5024 27.7938L20.7824 9.50625Z" fill="#fff"/>
</svg>
