<?xml version="1.0" encoding="utf-8"?>
<!-- Generator: Adobe Illustrator 23.0.5, SVG Export Plug-In . SVG Version: 6.00 Build 0)  -->
<svg version="1.1" id="Layer_1" xmlns="http://www.w3.org/2000/svg" xmlns:xlink="http://www.w3.org/1999/xlink" x="0px" y="0px"
	 viewBox="0 0 420.7 80.7" style="enable-background:new 0 0 420.7 80.7;" xml:space="preserve">
<style type="text/css">
	.st0{fill:#FFFFFF;}
	.st1{enable-background:new    ;}
</style>
<path class="st0" d="M27.9,32.6c2.3,0,3.8,0.5,4.6,1.6c0.7,1.1,0.7,2.9,0.1,5.6l-2.1,8.3c-0.3,1-0.4,1.7-0.3,2.2
	c0,0.5,0.2,1,0.3,1.3h-9.8l0.1-2.1h-0.1c-0.5,0.8-1,1.4-1.6,1.7s-1.6,0.4-2.9,0.4H9.3c-2.2,0-3.5-0.5-4-1.4c-0.5-0.9-0.6-2.4,0-4.4
	l0.4-1.4c0.5-2,1.3-3.5,2.3-4.4c1-0.9,2.6-1.4,4.8-1.4h8.8c0.7,0,1.2-0.1,1.4-0.3c0.3-0.2,0.4-0.5,0.5-0.9c0.1-0.4,0.1-0.7-0.1-0.9
	c-0.2-0.2-0.6-0.3-1.3-0.3h-9.6c-0.7,0-1.3,0-1.8,0.1c-0.5,0.1-1,0.2-1.5,0.4C9,36.9,8.9,36.9,8.8,37c-0.1,0.1-0.3,0.1-0.4,0.2
	l1.9-4.5H27.9z M17.8,42.5c-0.7,0-1.3,0.1-1.7,0.3c-0.4,0.2-0.6,0.6-0.8,1.3l-0.6,2.2c-0.2,0.7-0.1,1.1,0.1,1.3
	c0.3,0.2,0.8,0.3,1.5,0.3h2.3c0.9,0,1.5-0.1,1.8-0.4c0.3-0.3,0.6-1.1,0.9-2.3l0.7-2.7H17.8z"/>
<path class="st0" d="M48.7,52.3l0.7-2.6h-0.1c0,0.1-0.1,0.2-0.2,0.3c-0.1,0.1-0.1,0.2-0.2,0.3c-0.2,0.4-0.5,0.7-1,1
	c-0.4,0.3-1,0.4-1.7,0.4h-7.6c-2.2,0-3.6-0.6-4.3-1.7s-0.7-2.5-0.3-4.3l1.9-7.2c0.5-1.8,1.3-3.2,2.5-4.3c1.2-1.1,2.9-1.6,5.1-1.6
	h7.6c1,0,1.6,0.2,2,0.5c0.4,0.3,0.5,0.8,0.5,1.6h0.1l1-2h9.8c-0.1,0.1-0.2,0.3-0.3,0.4s-0.3,0.4-0.4,0.6c-0.3,0.4-0.5,0.9-0.8,1.5
	c-0.3,0.6-0.6,1.5-0.8,2.5l-3.6,14c-0.7,2.7-1.7,4.5-3,5.6c-1.3,1.1-3.1,1.6-5.4,1.6l-17.9,0l0.6-4.8c0.3,0.1,0.5,0.2,0.8,0.3
	c0.2,0.1,0.5,0.2,0.7,0.3c0.4,0.1,0.8,0.2,1.2,0.3c0.4,0.1,0.9,0.1,1.5,0.1l8.3,0c1,0,1.8-0.2,2.2-0.6
	C48.1,54.2,48.5,53.5,48.7,52.3L48.7,52.3z M52.5,37.9c0.1-0.5,0.1-0.9,0-1.2s-0.5-0.4-1-0.4h-3.8c-0.5,0-0.9,0.1-1.2,0.4
	s-0.5,0.6-0.6,1.2l-2.2,8.5c-0.1,0.5-0.1,0.9,0,1.2c0.1,0.2,0.5,0.4,1,0.4h3.8c0.5,0,0.9-0.1,1.2-0.4c0.3-0.2,0.5-0.6,0.6-1.2
	L52.5,37.9z"/>
<path class="st0" d="M73.2,44.2L72.8,46c-0.1,0.7-0.1,1.2,0.2,1.5c0.3,0.3,0.8,0.5,1.5,0.5h9.4c0.5,0,1,0,1.5,0
	c0.4,0,0.9-0.1,1.3-0.2c0.3-0.1,0.6-0.1,0.9-0.2c0.3-0.1,0.6-0.2,1-0.3l-1.9,4.5H67.2c-2.2,0-3.5-0.5-4-1.4c-0.5-0.9-0.6-2.4,0-4.4
	l1.9-7.6c0.5-2,1.3-3.5,2.3-4.4c1-0.9,2.6-1.4,4.8-1.4h14.8c2.2,0,3.5,0.5,4.1,1.4c0.5,0.9,0.5,2.4,0,4.4l-1.5,5.8H73.2z M81,40.5
	l0.7-2.6c0.1-0.5,0.1-0.9,0-1.2s-0.5-0.4-1-0.4h-4c-0.5,0-0.9,0.1-1.2,0.4s-0.5,0.6-0.6,1.2l-0.7,2.6H81z"/>
<path class="st0" d="M104.9,32.6l-0.2,2h0.1c0,0,0,0,0-0.1c0,0,0,0,0-0.1c0.3-0.5,0.7-0.9,1.2-1.3c0.5-0.4,1-0.6,1.7-0.6h7.9
	c2.3,0,3.7,0.6,4.4,1.9c0.7,1.2,0.8,2.9,0.2,5.1l-2,7.8c-0.3,1.2-0.4,2.1-0.4,2.6c0,0.6,0.1,1,0.3,1.5c0,0.1,0,0.1,0,0.1
	c0,0,0,0.1,0,0.1h-11.9c0-0.1,0.1-0.1,0.1-0.1c0,0,0.1-0.1,0.1-0.1c0.4-0.4,0.7-0.9,1-1.5c0.3-0.6,0.6-1.4,0.9-2.6l2.4-9.4
	c0.2-0.6,0.1-1,0-1.2c-0.2-0.2-0.6-0.3-1.2-0.3h-3.5c-0.6,0-1,0.1-1.3,0.3c-0.3,0.2-0.5,0.6-0.7,1.2l-2.4,9.4
	c-0.3,1.2-0.4,2.1-0.4,2.6c0,0.6,0.1,1,0.3,1.5c0,0.1,0,0.1,0,0.1c0,0,0,0.1,0,0.1H90c0-0.1,0.1-0.1,0.1-0.1c0,0,0.1-0.1,0.1-0.1
	c0.4-0.4,0.7-0.9,1-1.5c0.3-0.6,0.6-1.4,0.9-2.6L94.8,37c0.3-1.2,0.4-2.1,0.4-2.6c0-0.6-0.1-1-0.3-1.5c0-0.1,0-0.1,0-0.1
	c0,0,0-0.1,0-0.1H104.9z"/>
<path class="st0" d="M131.4,46c-0.1,0.7-0.1,1.2,0.2,1.5c0.3,0.3,0.8,0.5,1.5,0.5h4.7c1.5,0,2.6-0.1,3.2-0.2
	c0.7-0.1,1.3-0.3,1.8-0.5c0.1,0,0.1-0.1,0.2-0.1c0.1,0,0.1-0.1,0.2-0.1l-1.9,4.7h-15.1c-2.2,0-3.6-0.6-4.3-1.7s-0.7-2.5-0.3-4.3
	l1.9-7.2c0.5-1.8,1.3-3.2,2.5-4.3c1.2-1.1,2.9-1.6,5.1-1.6h15.1l-0.4,4.8c-0.3-0.4-0.8-0.6-1.5-0.8c-0.7-0.2-1.7-0.2-2.9-0.2h-5.5
	c-0.8,0-1.4,0.1-1.8,0.4c-0.4,0.3-0.7,0.8-0.9,1.5L131.4,46z"/>
<path class="st0" d="M151.6,51.7c-2.3,0-3.8-0.6-4.4-1.9c-0.7-1.2-0.8-2.9-0.2-5.1l2-7.8c0.3-1.2,0.4-2.1,0.4-2.6
	c0-0.6-0.1-1-0.3-1.5c0-0.1,0-0.1,0-0.1c0,0,0-0.1,0-0.1h10.7l-3.5,13.8c-0.2,0.6-0.1,1,0,1.2c0.2,0.2,0.6,0.3,1.2,0.3h3.6
	c0.5,0,0.8-0.1,1-0.2c0.2-0.2,0.4-0.6,0.6-1.4l2.6-10.1c0.3-1,0.4-1.7,0.4-2.1c0-0.4,0-0.8-0.1-1.1c0-0.1-0.1-0.1-0.1-0.2
	c0-0.1,0-0.2-0.1-0.2h10.5l0,0.1l-5.3,20.7c-0.5,1.8-1.3,3.1-2.4,4s-2.6,1.4-4.4,1.4l-19.1,0l0.5-4.7c0,0,0.1,0,0.1,0
	c0,0,0.1,0,0.1,0.1c0.4,0.2,0.8,0.4,1.4,0.5s1.3,0.3,2.4,0.3l9.3,0c0.8,0,1.4-0.2,1.7-0.4s0.5-0.6,0.6-1l1-3.9h-0.1c0,0,0,0.1,0,0.1
	c0,0,0,0.1,0,0.1c-0.4,0.5-0.8,1-1.2,1.3s-1.2,0.4-2.3,0.4H151.6z"/>
<path class="st0" d="M186,44.2l-0.5,1.8c-0.1,0.7-0.1,1.2,0.2,1.5c0.3,0.3,0.8,0.5,1.5,0.5h9.4c0.5,0,1,0,1.5,0
	c0.4,0,0.9-0.1,1.3-0.2c0.3-0.1,0.6-0.1,0.9-0.2c0.3-0.1,0.6-0.2,1-0.3l-1.9,4.5H180c-2.2,0-3.5-0.5-4-1.4c-0.5-0.9-0.6-2.4,0-4.4
	l1.9-7.6c0.5-2,1.3-3.5,2.3-4.4c1-0.9,2.6-1.4,4.8-1.4h14.8c2.2,0,3.5,0.5,4.1,1.4c0.5,0.9,0.5,2.4,0,4.4l-1.5,5.8H186z M193.7,40.5
	l0.7-2.6c0.1-0.5,0.1-0.9,0-1.2s-0.5-0.4-1-0.4h-4c-0.5,0-0.9,0.1-1.2,0.4s-0.5,0.6-0.6,1.2l-0.7,2.6H193.7z"/>
<path class="st0" d="M210,30c0.3-1.2,0.4-2.1,0.4-2.6c0-0.6-0.1-1-0.3-1.5c0-0.1,0-0.1,0-0.1c0,0,0-0.1,0-0.1h10.7l-0.2,0.9
	l-5.4,20.8l0,0c-0.3,1.2-0.4,2.1-0.4,2.6s0.1,1,0.3,1.5c0,0.1,0,0.1,0,0.1s0,0.1,0,0.1h-11.8c0-0.1,0.1-0.1,0.1-0.1
	c0,0,0.1-0.1,0.1-0.1c0.4-0.4,0.7-0.9,1-1.5c0.3-0.6,0.6-1.4,0.9-2.6L210,30z"/>
<path class="st0" d="M229.4,44.2l-0.5,1.8c-0.1,0.7-0.1,1.2,0.2,1.5c0.3,0.3,0.8,0.5,1.5,0.5h9.4c0.5,0,1,0,1.5,0s0.9-0.1,1.3-0.2
	c0.3-0.1,0.6-0.1,0.9-0.2c0.3-0.1,0.6-0.2,1-0.3l-1.9,4.5h-19.4c-2.2,0-3.5-0.5-4-1.4s-0.6-2.4,0-4.4l1.9-7.6c0.5-2,1.3-3.5,2.3-4.4
	c1-0.9,2.6-1.4,4.8-1.4h14.8c2.2,0,3.5,0.5,4.1,1.4c0.5,0.9,0.5,2.4,0,4.4l-1.5,5.8H229.4z M237.1,40.5l0.7-2.6
	c0.1-0.5,0.1-0.9,0-1.2c-0.1-0.2-0.5-0.4-1-0.4h-4c-0.5,0-0.9,0.1-1.2,0.4c-0.3,0.2-0.5,0.6-0.6,1.2l-0.7,2.6H237.1z"/>
<path class="st0" d="M270.9,34.9c0.1-0.2,0.2-0.4,0.3-0.6c0.1-0.2,0.2-0.4,0.2-0.6c0-0.2,0.1-0.4,0.1-0.6c0-0.2,0-0.4,0-0.6h5.7
	c-0.5,0.5-0.9,0.9-1.2,1.2c-0.3,0.3-0.5,0.6-0.8,0.9c-0.1,0.1-0.1,0.2-0.2,0.2c-0.1,0.1-0.1,0.2-0.2,0.2c-0.2,0.2-0.3,0.4-0.4,0.6
	c-0.1,0.2-0.3,0.4-0.5,0.7l-10.2,15.1h-10.3l-3.2-17c0-0.2-0.1-0.4-0.1-0.7c0-0.2-0.1-0.5-0.2-0.7c-0.1-0.1-0.1-0.2-0.2-0.3
	c-0.1-0.1-0.1-0.2-0.2-0.3h11.7c-0.1,0.2-0.1,0.3-0.2,0.4c-0.1,0.1-0.1,0.3-0.1,0.4c-0.1,0.2-0.1,0.5-0.1,0.8c0,0.3,0.1,0.7,0.1,1.1
	l1.9,11.4L270.9,34.9z"/>
<path class="st0" d="M284.3,44.2l-0.5,1.8c-0.1,0.7-0.1,1.2,0.2,1.5s0.8,0.5,1.5,0.5h9.4c0.5,0,1,0,1.5,0c0.4,0,0.9-0.1,1.3-0.2
	c0.3-0.1,0.6-0.1,0.9-0.2c0.3-0.1,0.6-0.2,1-0.3l-1.9,4.5h-19.4c-2.2,0-3.5-0.5-4-1.4c-0.5-0.9-0.6-2.4,0-4.4l1.9-7.6
	c0.5-2,1.3-3.5,2.3-4.4c1-0.9,2.6-1.4,4.8-1.4H298c2.2,0,3.5,0.5,4.1,1.4c0.5,0.9,0.5,2.4,0,4.4l-1.5,5.8H284.3z M292,40.5l0.7-2.6
	c0.1-0.5,0.1-0.9,0-1.2c-0.1-0.2-0.5-0.4-1-0.4h-4c-0.5,0-0.9,0.1-1.2,0.4c-0.3,0.2-0.5,0.6-0.6,1.2l-0.7,2.6H292z"/>
<path class="st0" d="M316,32.6l-0.2,2h0.1c0,0,0,0,0-0.1c0,0,0,0,0-0.1c0.3-0.5,0.7-0.9,1.2-1.3c0.5-0.4,1-0.6,1.7-0.6h7.9
	c2.3,0,3.8,0.6,4.4,1.9c0.7,1.2,0.8,2.9,0.2,5.1l-2,7.8c-0.3,1.2-0.4,2.1-0.4,2.6c0,0.6,0.1,1,0.3,1.5c0,0.1,0,0.1,0,0.1
	c0,0,0,0.1,0,0.1h-11.9c0-0.1,0.1-0.1,0.1-0.1c0,0,0.1-0.1,0.1-0.1c0.4-0.4,0.7-0.9,1-1.5c0.3-0.6,0.6-1.4,0.9-2.6l2.4-9.4
	c0.2-0.6,0.1-1,0-1.2c-0.2-0.2-0.6-0.3-1.2-0.3h-3.5c-0.6,0-1,0.1-1.3,0.3c-0.3,0.2-0.5,0.6-0.7,1.2l-2.4,9.4
	c-0.3,1.2-0.4,2.1-0.4,2.6s0.1,1,0.3,1.5c0,0.1,0,0.1,0,0.1s0,0.1,0,0.1H301c0-0.1,0.1-0.1,0.1-0.1s0.1-0.1,0.1-0.1
	c0.4-0.4,0.7-0.9,1-1.5s0.6-1.4,0.9-2.6l2.7-10.3c0.3-1.2,0.4-2.1,0.4-2.6c0-0.6-0.1-1-0.3-1.5c0-0.1,0-0.1,0-0.1c0,0,0-0.1,0-0.1
	H316z"/>
<path class="st0" d="M351.4,27.3l-5.4,20.8l0,0c-0.3,1-0.4,1.7-0.3,2.2c0,0.5,0.2,1,0.3,1.3h-11.9c0.4-0.4,0.7-0.8,1-1.3
	c0.3-0.5,0.5-1.3,0.8-2.2l3.7-14.5H336l1.2-4.7l11.9-3.3h2.7L351.4,27.3z"/>
<path class="st0" d="M380,25.6c2.1,0,3.6,0.6,4.5,1.7c0.9,1.2,0.9,3.1,0.2,6l-2.8,10.7c-0.7,2.8-1.8,4.8-3.2,5.9
	c-1.4,1.2-3.2,1.7-5.4,1.7h-15.1c-2.1,0-3.6-0.6-4.5-1.7c-0.9-1.2-0.9-3.1-0.2-5.9l2.8-10.7c0.7-2.8,1.8-4.8,3.3-6
	c1.4-1.2,3.2-1.7,5.4-1.7H380z M369.2,29.9c-0.7,0-1.2,0.1-1.6,0.4c-0.4,0.2-0.7,0.7-0.8,1.4l-3.6,14c-0.2,0.6-0.1,1.1,0.2,1.3
	c0.3,0.2,0.7,0.4,1.4,0.4h4.3c0.7,0,1.2-0.1,1.6-0.4c0.4-0.2,0.7-0.7,0.8-1.3l3.6-14c0.2-0.7,0.1-1.1-0.1-1.4
	c-0.3-0.2-0.7-0.4-1.4-0.4H369.2z"/>
<path class="st0" d="M412,25.6c2.1,0,3.6,0.6,4.5,1.7c0.9,1.2,0.9,3.1,0.2,6l-2.8,10.7c-0.7,2.8-1.8,4.8-3.2,5.9
	c-1.4,1.2-3.2,1.7-5.4,1.7h-15.1c-2.1,0-3.6-0.6-4.5-1.7c-0.9-1.2-0.9-3.1-0.2-5.9l2.8-10.7c0.7-2.8,1.8-4.8,3.3-6
	c1.4-1.2,3.2-1.7,5.4-1.7H412z M401.2,29.9c-0.7,0-1.2,0.1-1.6,0.4c-0.4,0.2-0.7,0.7-0.8,1.4l-3.6,14c-0.2,0.6-0.1,1.1,0.2,1.3
	c0.3,0.2,0.7,0.4,1.4,0.4h4.3c0.7,0,1.2-0.1,1.6-0.4c0.4-0.2,0.7-0.7,0.8-1.3l3.6-14c0.2-0.7,0.1-1.1-0.1-1.4
	c-0.3-0.2-0.7-0.4-1.4-0.4H401.2z"/>
<g class="st1">
	<path class="st0" d="M294.9,60.7v4.8h0.2c0.7,0,1.3-0.2,1.6-0.7c0.3-0.5,0.5-1.2,0.6-2.1h0.3v6.1h-0.3c-0.1-0.7-0.2-1.2-0.4-1.6
		c-0.2-0.4-0.5-0.7-0.8-0.9c-0.3-0.1-0.7-0.2-1.3-0.2v3.3c0,0.7,0,1,0.1,1.2s0.2,0.3,0.3,0.4s0.4,0.1,0.7,0.1h0.7
		c1.1,0,2-0.3,2.6-0.8c0.7-0.5,1.1-1.3,1.4-2.3h0.3l-0.5,3.7h-10.1v-0.3h0.4c0.3,0,0.6-0.1,0.8-0.2c0.2-0.1,0.3-0.2,0.3-0.4
		c0.1-0.1,0.1-0.5,0.1-1.1V62c0-0.5,0-0.9,0-1c-0.1-0.2-0.2-0.4-0.3-0.5c-0.2-0.2-0.5-0.2-0.9-0.2h-0.4V60h9.8v3.5h-0.3
		c-0.2-0.8-0.4-1.5-0.7-1.8c-0.3-0.4-0.7-0.6-1.3-0.8c-0.3-0.1-0.9-0.2-1.8-0.2H294.9z"/>
	<path class="st0" d="M306.1,72l-2.7-6.3c-0.3-0.8-0.6-1.2-0.8-1.4c-0.1-0.2-0.3-0.3-0.6-0.3v-0.3h4.3V64c-0.3,0-0.4,0-0.5,0.2
		c-0.1,0.1-0.2,0.3-0.2,0.5c0,0.2,0.1,0.6,0.4,1.2l1.3,3l1.1-2.6c0.3-0.7,0.5-1.3,0.5-1.6c0-0.2-0.1-0.3-0.2-0.4
		c-0.1-0.1-0.4-0.2-0.7-0.2v-0.3h2.6V64c-0.3,0-0.5,0.1-0.6,0.3c-0.2,0.2-0.4,0.6-0.7,1.4l-2.7,6.3H306.1z"/>
	<path class="st0" d="M318.2,67.4h-4.4c0,1.1,0.3,1.9,0.9,2.5c0.4,0.5,0.9,0.7,1.4,0.7c0.4,0,0.7-0.1,1-0.3c0.3-0.2,0.6-0.5,0.9-1
		l0.3,0.2c-0.4,0.9-0.9,1.5-1.5,1.9s-1.1,0.6-1.8,0.6c-1.2,0-2.1-0.5-2.7-1.4c-0.5-0.7-0.7-1.7-0.7-2.8c0-1.3,0.4-2.4,1.1-3.2
		c0.7-0.8,1.6-1.2,2.6-1.2c0.8,0,1.5,0.3,2.1,1C317.8,65.1,318.1,66.1,318.2,67.4z M316,66.8c0-0.9,0-1.6-0.2-1.9s-0.3-0.6-0.5-0.8
		c-0.1-0.1-0.3-0.2-0.5-0.2c-0.3,0-0.5,0.1-0.7,0.4c-0.3,0.5-0.5,1.2-0.5,2.1v0.3H316z"/>
	<path class="st0" d="M322.5,63.7v1.1c0.4-0.5,0.8-0.8,1.2-1c0.4-0.2,0.8-0.3,1.2-0.3c0.5,0,1,0.1,1.3,0.4c0.3,0.3,0.6,0.7,0.7,1.1
		c0.1,0.3,0.1,1,0.1,1.9V70c0,0.6,0.1,1,0.2,1.2s0.4,0.2,0.7,0.3v0.3h-4.1v-0.3c0.3,0,0.5-0.2,0.7-0.4c0.1-0.2,0.1-0.5,0.1-1.1v-3.6
		c0-0.7,0-1.1-0.1-1.3s-0.1-0.3-0.3-0.4c-0.1-0.1-0.3-0.1-0.4-0.1c-0.5,0-1,0.4-1.4,1.1V70c0,0.6,0.1,1,0.2,1.1
		c0.1,0.2,0.3,0.3,0.6,0.3v0.3h-4.1v-0.3c0.3,0,0.6-0.1,0.7-0.3c0.1-0.1,0.2-0.5,0.2-1.1v-4.6c0-0.6-0.1-1-0.2-1.1
		c-0.1-0.1-0.4-0.2-0.7-0.3v-0.3H322.5z"/>
	<path class="st0" d="M336.6,63.7v6.4c0,0.6,0.1,0.9,0.2,1.1c0.1,0.2,0.4,0.2,0.8,0.3v0.3h-4.4v-0.3c0.4,0,0.6-0.1,0.8-0.3
		c0.1-0.1,0.2-0.5,0.2-1.1v-4.7c0-0.6-0.1-0.9-0.2-1.1c-0.1-0.2-0.4-0.3-0.8-0.3v-0.3H336.6z M335.4,59.8c0.4,0,0.7,0.1,0.9,0.4
		c0.3,0.3,0.4,0.6,0.4,0.9c0,0.4-0.1,0.7-0.4,0.9c-0.3,0.3-0.6,0.4-0.9,0.4c-0.4,0-0.7-0.1-0.9-0.4s-0.4-0.6-0.4-0.9
		c0-0.4,0.1-0.7,0.4-0.9C334.7,59.9,335,59.8,335.4,59.8z"/>
	<path class="st0" d="M341.7,63.7v1.1c0.4-0.5,0.8-0.8,1.2-1c0.4-0.2,0.8-0.3,1.2-0.3c0.5,0,1,0.1,1.3,0.4c0.3,0.3,0.6,0.7,0.7,1.1
		c0.1,0.3,0.1,1,0.1,1.9V70c0,0.6,0.1,1,0.2,1.2s0.4,0.2,0.7,0.3v0.3H343v-0.3c0.3,0,0.5-0.2,0.7-0.4c0.1-0.2,0.1-0.5,0.1-1.1v-3.6
		c0-0.7,0-1.1-0.1-1.3s-0.1-0.3-0.3-0.4c-0.1-0.1-0.3-0.1-0.4-0.1c-0.5,0-1,0.4-1.4,1.1V70c0,0.6,0.1,1,0.2,1.1
		c0.1,0.2,0.3,0.3,0.6,0.3v0.3h-4.1v-0.3c0.3,0,0.6-0.1,0.7-0.3c0.1-0.1,0.2-0.5,0.2-1.1v-4.6c0-0.6-0.1-1-0.2-1.1
		c-0.1-0.1-0.4-0.2-0.7-0.3v-0.3H341.7z"/>
	<path class="st0" d="M355.9,60.7v3h1.9v0.9h-1.9v5c0,0.5,0,0.8,0.1,0.9s0.1,0.2,0.2,0.3c0.1,0.1,0.2,0.1,0.3,0.1
		c0.4,0,0.7-0.3,1.1-0.9l0.3,0.2c-0.5,1.1-1.2,1.7-2.3,1.7c-0.5,0-0.9-0.1-1.3-0.4c-0.4-0.3-0.6-0.6-0.7-1c-0.1-0.2-0.1-0.7-0.1-1.6
		v-4.4h-1.1v-0.3c0.7-0.5,1.3-1.1,1.9-1.6c0.5-0.6,1-1.2,1.3-1.9H355.9z"/>
	<path class="st0" d="M361.9,60v4.7c0.4-0.5,0.9-0.8,1.2-1c0.4-0.2,0.8-0.3,1.2-0.3c0.5,0,0.9,0.1,1.3,0.4c0.4,0.3,0.6,0.6,0.7,1
		c0.1,0.4,0.2,1,0.2,2V70c0,0.6,0.1,1,0.2,1.1s0.3,0.2,0.7,0.3v0.3h-4.1v-0.3c0.3,0,0.5-0.2,0.6-0.3c0.1-0.2,0.2-0.5,0.2-1.1v-3.6
		c0-0.7,0-1.1-0.1-1.3s-0.1-0.3-0.3-0.4c-0.1-0.1-0.3-0.1-0.4-0.1c-0.2,0-0.5,0.1-0.7,0.2c-0.2,0.2-0.5,0.4-0.7,0.8V70
		c0,0.6,0,0.9,0.1,1.1c0.1,0.2,0.3,0.3,0.7,0.4v0.3h-4.1v-0.3c0.3,0,0.6-0.1,0.7-0.3c0.1-0.1,0.2-0.5,0.2-1.1v-8.2
		c0-0.6-0.1-1-0.2-1.1s-0.4-0.3-0.7-0.3V60H361.9z"/>
	<path class="st0" d="M375.2,67.4h-4.4c0,1.1,0.3,1.9,0.9,2.5c0.4,0.5,0.9,0.7,1.4,0.7c0.4,0,0.7-0.1,1-0.3c0.3-0.2,0.6-0.5,0.9-1
		l0.3,0.2c-0.4,0.9-0.9,1.5-1.5,1.9s-1.1,0.6-1.8,0.6c-1.2,0-2.1-0.5-2.7-1.4c-0.5-0.7-0.7-1.7-0.7-2.8c0-1.3,0.4-2.4,1.1-3.2
		c0.7-0.8,1.6-1.2,2.6-1.2c0.8,0,1.5,0.3,2.1,1C374.9,65.1,375.2,66.1,375.2,67.4z M373.1,66.8c0-0.9,0-1.6-0.2-1.9
		s-0.3-0.6-0.5-0.8c-0.1-0.1-0.3-0.2-0.5-0.2c-0.3,0-0.5,0.1-0.7,0.4c-0.3,0.5-0.5,1.2-0.5,2.1v0.3H373.1z"/>
	<path class="st0" d="M384.5,63.4c0.7,0,1.4,0.2,2,0.5c0.6,0.4,1.1,0.9,1.4,1.5c0.3,0.7,0.5,1.4,0.5,2.2c0,1.1-0.3,2.1-0.9,2.9
		c-0.7,0.9-1.7,1.4-2.9,1.4c-1.2,0-2.2-0.4-2.8-1.3c-0.7-0.9-1-1.8-1-3c0-1.2,0.3-2.2,1-3C382.4,63.9,383.3,63.4,384.5,63.4z
		 M384.5,64c-0.3,0-0.5,0.1-0.8,0.3c-0.2,0.2-0.4,0.7-0.4,1.3c-0.1,0.7-0.1,1.6-0.1,2.7c0,0.6,0,1.2,0.1,1.7
		c0.1,0.4,0.2,0.7,0.4,0.9s0.4,0.3,0.7,0.3c0.3,0,0.5-0.1,0.6-0.2c0.2-0.2,0.4-0.5,0.5-0.8c0.1-0.5,0.2-1.7,0.2-3.3
		c0-1-0.1-1.7-0.2-2c-0.1-0.4-0.3-0.6-0.5-0.8C385,64.1,384.8,64,384.5,64z"/>
	<path class="st0" d="M397.4,60v9.3c0,0.6,0,1,0.1,1.1c0,0.2,0.1,0.3,0.3,0.4s0.4,0.2,0.7,0.2v0.3L395,72v-1.3
		c-0.4,0.5-0.8,0.8-1.1,1s-0.7,0.3-1.1,0.3c-1,0-1.8-0.5-2.4-1.4c-0.5-0.8-0.7-1.7-0.7-2.8c0-0.9,0.1-1.7,0.4-2.3
		c0.3-0.7,0.7-1.2,1.2-1.6s1.1-0.5,1.7-0.5c0.4,0,0.7,0.1,1,0.2c0.3,0.2,0.6,0.4,1,0.8V62c0-0.6,0-1-0.1-1.1
		c-0.1-0.2-0.2-0.3-0.3-0.4c-0.1-0.1-0.4-0.1-0.8-0.1V60H397.4z M395,65.5c-0.4-0.8-1-1.2-1.6-1.2c-0.2,0-0.4,0.1-0.5,0.2
		c-0.2,0.2-0.4,0.5-0.5,0.9c-0.1,0.4-0.2,1.1-0.2,2.1c0,1,0.1,1.8,0.2,2.3c0.2,0.5,0.4,0.8,0.6,1.1c0.1,0.1,0.3,0.2,0.5,0.2
		c0.5,0,1-0.4,1.4-1.2V65.5z"/>
	<path class="st0" d="M407.2,60v9.3c0,0.6,0,1,0.1,1.1c0,0.2,0.1,0.3,0.3,0.4s0.4,0.2,0.7,0.2v0.3l-3.4,0.7v-1.3
		c-0.4,0.5-0.8,0.8-1.1,1s-0.7,0.3-1.1,0.3c-1,0-1.8-0.5-2.4-1.4c-0.5-0.8-0.7-1.7-0.7-2.8c0-0.9,0.1-1.7,0.4-2.3
		c0.3-0.7,0.7-1.2,1.2-1.6s1.1-0.5,1.7-0.5c0.4,0,0.7,0.1,1,0.2c0.3,0.2,0.6,0.4,1,0.8V62c0-0.6,0-1-0.1-1.1
		c-0.1-0.2-0.2-0.3-0.3-0.4c-0.1-0.1-0.4-0.1-0.8-0.1V60H407.2z M404.8,65.5c-0.4-0.8-1-1.2-1.6-1.2c-0.2,0-0.4,0.1-0.5,0.2
		c-0.2,0.2-0.4,0.5-0.5,0.9c-0.1,0.4-0.2,1.1-0.2,2.1c0,1,0.1,1.8,0.2,2.3c0.2,0.5,0.4,0.8,0.6,1.1c0.1,0.1,0.3,0.2,0.5,0.2
		c0.5,0,1-0.4,1.4-1.2V65.5z"/>
	<path class="st0" d="M414.3,63.4l0.1,2.8h-0.3c-0.4-0.8-0.7-1.4-1.1-1.7s-0.8-0.5-1.1-0.5c-0.2,0-0.4,0.1-0.6,0.2
		c-0.2,0.2-0.3,0.3-0.3,0.5c0,0.2,0.1,0.3,0.2,0.5c0.2,0.2,0.7,0.6,1.5,1.2s1.4,1.1,1.7,1.5s0.4,0.9,0.4,1.4c0,0.4-0.1,0.9-0.3,1.3
		c-0.2,0.4-0.5,0.8-1,1c-0.4,0.2-0.9,0.3-1.4,0.3c-0.4,0-0.9-0.1-1.5-0.4c-0.2-0.1-0.3-0.1-0.4-0.1c-0.2,0-0.3,0.1-0.5,0.4h-0.3
		l-0.1-2.9h0.3c0.3,0.8,0.6,1.3,1.1,1.7c0.5,0.4,0.9,0.6,1.3,0.6c0.3,0,0.5-0.1,0.7-0.3c0.2-0.2,0.3-0.4,0.3-0.6
		c0-0.3-0.1-0.5-0.3-0.7c-0.2-0.2-0.6-0.5-1.2-0.9c-0.9-0.6-1.5-1.1-1.7-1.4c-0.4-0.5-0.6-1-0.6-1.6c0-0.6,0.2-1.2,0.6-1.7
		c0.4-0.5,1.1-0.8,1.9-0.8c0.4,0,0.9,0.1,1.3,0.3c0.2,0.1,0.3,0.1,0.4,0.1c0.1,0,0.2,0,0.3-0.1s0.2-0.2,0.3-0.4H414.3z"/>
</g>
<g class="st1">
	<path class="st0" d="M412.7,5.5c1.2,0,2.3,0.3,3.4,0.9c1.1,0.6,2,1.5,2.6,2.6s0.9,2.3,0.9,3.5c0,1.2-0.3,2.4-0.9,3.5
		c-0.6,1.1-1.5,2-2.6,2.6c-1.1,0.6-2.3,0.9-3.5,0.9c-1.2,0-2.4-0.3-3.5-0.9s-2-1.5-2.6-2.6s-0.9-2.3-0.9-3.5c0-1.2,0.3-2.4,0.9-3.5
		c0.6-1.1,1.5-2,2.6-2.6C410.4,5.8,411.5,5.5,412.7,5.5z M412.7,6.4c-1,0-2,0.3-3,0.8c-1,0.5-1.7,1.3-2.3,2.3c-0.5,1-0.8,2-0.8,3
		c0,1.1,0.3,2.1,0.8,3c0.5,1,1.3,1.7,2.3,2.3c1,0.5,2,0.8,3,0.8c1.1,0,2.1-0.3,3-0.8c1-0.5,1.7-1.3,2.3-2.3c0.5-1,0.8-2,0.8-3
		c0-1-0.3-2.1-0.8-3c-0.5-1-1.3-1.7-2.3-2.3C414.7,6.7,413.7,6.4,412.7,6.4z M409,8.5h3.6c1.2,0,2,0.1,2.5,0.4c0.7,0.4,1,1,1,1.7
		c0,0.5-0.1,0.9-0.4,1.2c-0.3,0.4-0.7,0.6-1.3,0.8l1.4,2.5c0.2,0.3,0.4,0.6,0.6,0.8c0.1,0.1,0.2,0.1,0.4,0.2v0.3h-2.4l-2-3.6h-0.5
		v1.9c0,0.6,0.1,0.9,0.2,1.1c0.1,0.2,0.5,0.2,1,0.3v0.3h-4.2v-0.3c0.4,0,0.7-0.1,0.8-0.2c0.2-0.2,0.2-0.6,0.2-1.1v-4.6
		c0-0.5-0.1-0.9-0.2-1s-0.3-0.2-0.7-0.3V8.5z M411.8,12.3c0.2,0,0.4,0.1,0.6,0.1c0.4,0,0.8-0.2,1.1-0.5c0.3-0.3,0.5-0.8,0.5-1.3
		c0-0.6-0.1-1-0.4-1.3c-0.3-0.3-0.7-0.4-1.3-0.4h-0.4V12.3z"/>
</g>
</svg>
